solid support-rideau-v2.1
facet normal 1.0 -0.0 -0.0
  outer loop
    vertex 68.48158922343315 25.999999999999996 2.0166371937957157
    vertex 68.48158922343315 24.0 3.0166371937957157
    vertex 68.48158922343315 24.0 2.0166371937957157
  endloop
endfacet
facet normal 1.0 -0.0 -0.0
  outer loop
    vertex 68.48158922343315 24.0 3.0166371937957157
    vertex 68.48158922343315 25.999999999999996 2.0166371937957157
    vertex 68.48158922343315 25.999999999999996 3.0166371937957157
  endloop
endfacet
facet normal -0.0 -0.0 1.0
  outer loop
    vertex 68.48158922343315 0.0 2.0166371937957157
    vertex 41.481589223433154 24.0 2.0166371937957157
    vertex 41.481589223433154 0.0 2.0166371937957157
  endloop
endfacet
facet normal -0.0 -0.0 1.0
  outer loop
    vertex 41.481589223433154 24.0 2.0166371937957157
    vertex 68.48158922343315 0.0 2.0166371937957157
    vertex 68.48158922343315 24.0 2.0166371937957157
  endloop
endfacet
facet normal 0.0 0.0 -1.0
  outer loop
    vertex 35.5 38.00000000000003 0.0
    vertex 0.49999999999999994 0.49999999999999994 0.0
    vertex 0.49999999999999994 38.00000000000003 0.0
  endloop
endfacet
facet normal 0.0 0.0 -1.0
  outer loop
    vertex 0.49999999999999994 0.49999999999999994 0.0
    vertex 35.5 38.00000000000003 0.0
    vertex 35.5 0.49999999999999994 0.0
  endloop
endfacet
facet normal 0.0 -1.0 0.0
  outer loop
    vertex 35.5 0.49999999999999994 0.0
    vertex 32.0 0.49999999999999994 1.5
    vertex 0.49999999999999994 0.49999999999999994 0.0
  endloop
endfacet
facet normal 0.0 -1.0 0.0
  outer loop
    vertex 32.0 0.49999999999999994 1.5
    vertex 35.5 0.49999999999999994 0.0
    vertex 35.5 0.5 24.0
  endloop
endfacet
facet normal 0.0 -1.0 0.0
  outer loop
    vertex 32.0 0.49999999999999994 1.5
    vertex 35.5 0.5 24.0
    vertex 32.0 0.5 24.0
  endloop
endfacet
facet normal 0.0 -1.0 0.0
  outer loop
    vertex 0.49999999999999994 0.49999999999999994 0.0
    vertex 3.999999999999999 0.49999999999999994 1.5
    vertex 0.49999999999999994 0.5 24.0
  endloop
endfacet
facet normal 0.0 -1.0 0.0
  outer loop
    vertex 3.999999999999999 0.49999999999999994 1.5
    vertex 0.49999999999999994 0.49999999999999994 0.0
    vertex 32.0 0.49999999999999994 1.5
  endloop
endfacet
facet normal 0.0 -1.0 0.0
  outer loop
    vertex 0.49999999999999994 0.5 24.0
    vertex 3.999999999999999 0.49999999999999994 1.5
    vertex 3.999999999999999 0.5 24.0
  endloop
endfacet
facet normal -1.0 0.0 0.0
  outer loop
    vertex 0.49999999999999994 0.5 24.0
    vertex 0.49999999999999994 38.00000000000003 0.0
    vertex 0.49999999999999994 0.49999999999999994 0.0
  endloop
endfacet
facet normal -1.0 0.0 0.0
  outer loop
    vertex 0.49999999999999994 38.00000000000003 0.0
    vertex 0.49999999999999994 0.5 24.0
    vertex 0.49999999999999994 38.00000000000003 24.0
  endloop
endfacet
facet normal 1.0 0.0 0.0
  outer loop
    vertex 35.5 38.00000000000003 0.0
    vertex 35.5 0.5 24.0
    vertex 35.5 0.49999999999999994 0.0
  endloop
endfacet
facet normal 1.0 0.0 0.0
  outer loop
    vertex 35.5 0.5 24.0
    vertex 35.5 38.00000000000003 0.0
    vertex 35.5 38.00000000000003 24.0
  endloop
endfacet
facet normal 1.0 -7.049916206369744e-16 -0.0
  outer loop
    vertex 3.9999999999999996 0.9999999999999999 1.5
    vertex 3.999999999999999 0.5 24.0
    vertex 3.999999999999999 0.49999999999999994 1.5
  endloop
endfacet
facet normal 1.0 -7.049916206369744e-16 -0.0
  outer loop
    vertex 3.999999999999999 0.5 24.0
    vertex 3.9999999999999996 0.9999999999999999 1.5
    vertex 3.9999999999999996 0.9999999999999999 24.0
  endloop
endfacet
facet normal 1.0 7.049916206369745e-16 1.0366571919815918e-48
  outer loop
    vertex 3.9999999999999996 3.499999999999999 1.5
    vertex 3.9999999999999996 2.999999999999999 24.0
    vertex 3.9999999999999996 2.999999999999999 1.5
  endloop
endfacet
facet normal 1.0 7.049916206369745e-16 1.0366571919815918e-48
  outer loop
    vertex 3.9999999999999996 2.999999999999999 24.0
    vertex 3.9999999999999996 3.499999999999999 1.5
    vertex 3.9999999999999996 3.499999999999999 24.0
  endloop
endfacet
facet normal -1.7624790515924366e-15 1.0 0.0
  outer loop
    vertex 2.000000000000001 3.4999999999999956 24.0
    vertex 3.9999999999999996 3.499999999999999 1.5
    vertex 2.000000000000001 3.4999999999999956 1.5
  endloop
endfacet
facet normal -1.7624790515924366e-15 1.0 0.0
  outer loop
    vertex 3.9999999999999996 3.499999999999999 1.5
    vertex 2.000000000000001 3.4999999999999956 24.0
    vertex 3.9999999999999996 3.499999999999999 24.0
  endloop
endfacet
facet normal 1.0 -3.3046482217358176e-17 0.0
  outer loop
    vertex 2.000000000000001 35.99999999999999 1.5
    vertex 2.000000000000001 3.4999999999999956 24.0
    vertex 2.000000000000001 3.4999999999999956 1.5
  endloop
endfacet
facet normal 1.0 -3.3046482217358176e-17 0.0
  outer loop
    vertex 2.000000000000001 3.4999999999999956 24.0
    vertex 2.000000000000001 35.99999999999999 1.5
    vertex 2.000000000000001 35.99999999999999 24.0
  endloop
endfacet
facet normal -1.0 -0.0 -0.0
  outer loop
    vertex 34.0 35.99999999999999 24.0
    vertex 34.0 3.499999999999999 1.5
    vertex 34.0 3.499999999999999 24.0
  endloop
endfacet
facet normal -1.0 -0.0 -0.0
  outer loop
    vertex 34.0 3.499999999999999 1.5
    vertex 34.0 35.99999999999999 24.0
    vertex 34.0 35.99999999999999 1.5
  endloop
endfacet
facet normal 0.0 1.0 0.0
  outer loop
    vertex 32.0 3.499999999999999 24.0
    vertex 34.0 3.499999999999999 1.5
    vertex 32.0 3.499999999999999 1.5
  endloop
endfacet
facet normal 0.0 1.0 0.0
  outer loop
    vertex 34.0 3.499999999999999 1.5
    vertex 32.0 3.499999999999999 24.0
    vertex 34.0 3.499999999999999 24.0
  endloop
endfacet
facet normal -1.0 0.0 0.0
  outer loop
    vertex 32.0 3.499999999999999 24.0
    vertex 32.0 3.0 1.5
    vertex 32.0 3.0 24.0
  endloop
endfacet
facet normal -1.0 0.0 0.0
  outer loop
    vertex 32.0 3.0 1.5
    vertex 32.0 3.499999999999999 24.0
    vertex 32.0 3.499999999999999 1.5
  endloop
endfacet
facet normal -1.0 0.0 0.0
  outer loop
    vertex 32.0 0.5 24.0
    vertex 32.0 0.9999999999999999 1.5
    vertex 32.0 0.49999999999999994 1.5
  endloop
endfacet
facet normal -1.0 0.0 0.0
  outer loop
    vertex 32.0 0.9999999999999999 1.5
    vertex 32.0 0.5 24.0
    vertex 32.0 0.9999999999999999 24.0
  endloop
endfacet
facet normal 0.271758016897802 0.7040625922196371 -0.6560818900783189
  outer loop
    vertex 8.517638090205043 37.999999999999986 13.068148347421864
    vertex 9.999999999999996 35.999999999999986 11.53589838486223
    vertex 9.035276180410074 35.999999999999986 11.13629669484373
  endloop
endfacet
facet normal 0.271758016897802 0.7040625922196371 -0.6560818900783189
  outer loop
    vertex 9.999999999999996 35.999999999999986 11.53589838486223
    vertex 8.517638090205043 37.999999999999986 13.068148347421864
    vertex 9.000000000000004 37.999999999999986 13.267949192431125
  endloop
endfacet
facet normal 0.7040625922196356 0.7040625922196362 -0.0926915987235818
  outer loop
    vertex 9.931851652578137 37.999999999999986 14.48236190979496
    vertex 12.000000000000005 35.999999999999986 14.999999999999966
    vertex 11.863703305156262 35.999999999999986 13.964723819589898
  endloop
endfacet
facet normal 0.7040625922196356 0.7040625922196362 -0.0926915987235818
  outer loop
    vertex 12.000000000000005 35.999999999999986 14.999999999999966
    vertex 9.931851652578137 37.999999999999986 14.48236190979496
    vertex 10.000000000000002 37.999999999999986 15.0
  endloop
endfacet
facet normal 0.5633902913547472 0.7040625922196354 -0.43230457532182187
  outer loop
    vertex 9.414213562373096 37.999999999999986 13.585786437626908
    vertex 11.46410161513775 35.999999999999986 13.00000000000001
    vertex 10.828427124746185 35.999999999999986 12.171572875253805
  endloop
endfacet
facet normal 0.5633902913547472 0.7040625922196354 -0.43230457532182187
  outer loop
    vertex 11.46410161513775 35.999999999999986 13.00000000000001
    vertex 9.414213562373096 37.999999999999986 13.585786437626908
    vertex 9.732050807568879 37.999999999999986 14.000000000000002
  endloop
endfacet
facet normal 0.6560818900783153 0.7040625922196353 -0.27175801689781515
  outer loop
    vertex 9.732050807568879 37.999999999999986 14.000000000000002
    vertex 11.863703305156262 35.999999999999986 13.964723819589898
    vertex 11.46410161513775 35.999999999999986 13.00000000000001
  endloop
endfacet
facet normal 0.6560818900783153 0.7040625922196353 -0.27175801689781515
  outer loop
    vertex 11.863703305156262 35.999999999999986 13.964723819589898
    vertex 9.732050807568879 37.999999999999986 14.000000000000002
    vertex 9.931851652578137 37.999999999999986 14.48236190979496
  endloop
endfacet
facet normal 0.0926915987235916 0.704062592219639 -0.7040625922196315
  outer loop
    vertex 8.000000000000002 37.999999999999986 13.000000000000002
    vertex 9.035276180410074 35.999999999999986 11.13629669484373
    vertex 7.999999999999991 35.999999999999986 10.999999999999966
  endloop
endfacet
facet normal 0.0926915987235916 0.704062592219639 -0.7040625922196315
  outer loop
    vertex 9.035276180410074 35.999999999999986 11.13629669484373
    vertex 8.000000000000002 37.999999999999986 13.000000000000002
    vertex 8.517638090205043 37.999999999999986 13.068148347421864
  endloop
endfacet
facet normal 0.432304575321828 0.7040625922196374 -0.56339029135474
  outer loop
    vertex 9.000000000000004 37.999999999999986 13.267949192431125
    vertex 10.828427124746185 35.999999999999986 12.171572875253805
    vertex 9.999999999999996 35.999999999999986 11.53589838486223
  endloop
endfacet
facet normal 0.432304575321828 0.7040625922196374 -0.56339029135474
  outer loop
    vertex 10.828427124746185 35.999999999999986 12.171572875253805
    vertex 9.000000000000004 37.999999999999986 13.267949192431125
    vertex 9.414213562373096 37.999999999999986 13.585786437626908
  endloop
endfacet
facet normal -0.09269159872359078 0.7040625922196396 -0.7040625922196311
  outer loop
    vertex 6.9647238195898975 35.999999999999986 11.13629669484373
    vertex 8.000000000000002 37.999999999999986 13.000000000000002
    vertex 7.999999999999991 35.999999999999986 10.999999999999966
  endloop
endfacet
facet normal -0.09269159872359078 0.7040625922196396 -0.7040625922196311
  outer loop
    vertex 8.000000000000002 37.999999999999986 13.000000000000002
    vertex 6.9647238195898975 35.999999999999986 11.13629669484373
    vertex 7.482361909794962 37.999999999999986 13.068148347421864
  endloop
endfacet
facet normal -0.2717580168977947 0.70406259221964 -0.6560818900783186
  outer loop
    vertex 5.999999999999994 35.999999999999986 11.535898384862211
    vertex 7.482361909794962 37.999999999999986 13.068148347421864
    vertex 6.9647238195898975 35.999999999999986 11.13629669484373
  endloop
endfacet
facet normal -0.2717580168977947 0.70406259221964 -0.6560818900783186
  outer loop
    vertex 7.482361909794962 37.999999999999986 13.068148347421864
    vertex 5.999999999999994 35.999999999999986 11.535898384862211
    vertex 7.000000000000003 37.999999999999986 13.267949192431123
  endloop
endfacet
facet normal -0.43230457532183003 0.7040625922196406 -0.5633902913547343
  outer loop
    vertex 5.171572875253809 35.999999999999986 12.171572875253794
    vertex 7.000000000000003 37.999999999999986 13.267949192431123
    vertex 5.999999999999994 35.999999999999986 11.535898384862211
  endloop
endfacet
facet normal -0.43230457532183003 0.7040625922196406 -0.5633902913547343
  outer loop
    vertex 7.000000000000003 37.999999999999986 13.267949192431123
    vertex 5.171572875253809 35.999999999999986 12.171572875253794
    vertex 6.5857864376269095 37.999999999999986 13.585786437626904
  endloop
endfacet
facet normal -0.563390291354748 0.7040625922196374 -0.4323045753218174
  outer loop
    vertex 4.535898384862243 35.999999999999986 13.00000000000001
    vertex 6.5857864376269095 37.999999999999986 13.585786437626904
    vertex 5.171572875253809 35.999999999999986 12.171572875253794
  endloop
endfacet
facet normal -0.563390291354748 0.7040625922196374 -0.4323045753218174
  outer loop
    vertex 6.5857864376269095 37.999999999999986 13.585786437626904
    vertex 4.535898384862243 35.999999999999986 13.00000000000001
    vertex 6.267949192431127 37.999999999999986 14.0
  endloop
endfacet
facet normal -0.6560818900783109 0.7040625922196379 -0.27175801689781903
  outer loop
    vertex 4.136296694843721 35.999999999999986 13.964723819589898
    vertex 6.267949192431127 37.999999999999986 14.0
    vertex 4.535898384862243 35.999999999999986 13.00000000000001
  endloop
endfacet
facet normal -0.6560818900783109 0.7040625922196379 -0.27175801689781903
  outer loop
    vertex 6.267949192431127 37.999999999999986 14.0
    vertex 4.136296694843721 35.999999999999986 13.964723819589898
    vertex 6.068148347421866 37.999999999999986 14.482361909794959
  endloop
endfacet
facet normal -0.7040625922196345 0.7040625922196385 -0.09269159872357251
  outer loop
    vertex 3.9999999999999933 35.999999999999986 14.999999999999966
    vertex 6.068148347421866 37.999999999999986 14.482361909794959
    vertex 4.136296694843721 35.999999999999986 13.964723819589898
  endloop
endfacet
facet normal -0.7040625922196345 0.7040625922196385 -0.09269159872357251
  outer loop
    vertex 6.068148347421866 37.999999999999986 14.482361909794959
    vertex 3.9999999999999933 35.999999999999986 14.999999999999966
    vertex 6.000000000000003 37.999999999999986 15.0
  endloop
endfacet
facet normal -0.704062592219636 0.7040625922196372 0.09269159872357174
  outer loop
    vertex 4.136296694843721 35.999999999999986 16.03527618041005
    vertex 6.000000000000003 37.999999999999986 15.0
    vertex 3.9999999999999933 35.999999999999986 14.999999999999966
  endloop
endfacet
facet normal -0.704062592219636 0.7040625922196372 0.09269159872357174
  outer loop
    vertex 6.000000000000003 37.999999999999986 15.0
    vertex 4.136296694843721 35.999999999999986 16.03527618041005
    vertex 6.068148347421866 37.999999999999986 15.517638090205041
  endloop
endfacet
facet normal -0.6560818900783161 0.7040625922196357 0.27175801689781187
  outer loop
    vertex 4.136296694843721 35.999999999999986 16.03527618041005
    vertex 6.267949192431125 37.999999999999986 15.999999999999998
    vertex 6.068148347421866 37.999999999999986 15.517638090205041
  endloop
endfacet
facet normal -0.6560818900783161 0.7040625922196357 0.27175801689781187
  outer loop
    vertex 6.267949192431125 37.999999999999986 15.999999999999998
    vertex 4.136296694843721 35.999999999999986 16.03527618041005
    vertex 4.5358983848622385 35.999999999999986 16.999999999999968
  endloop
endfacet
facet normal -0.5633902913547414 0.7040625922196329 0.43230457532183336
  outer loop
    vertex 4.5358983848622385 35.999999999999986 16.999999999999968
    vertex 6.585786437626908 37.999999999999986 16.414213562373092
    vertex 6.267949192431125 37.999999999999986 15.999999999999998
  endloop
endfacet
facet normal -0.5633902913547414 0.7040625922196329 0.43230457532183336
  outer loop
    vertex 6.585786437626908 37.999999999999986 16.414213562373092
    vertex 4.5358983848622385 35.999999999999986 16.999999999999968
    vertex 5.171572875253809 35.999999999999986 17.828427124746142
  endloop
endfacet
facet normal -0.4323045753218402 0.7040625922196324 0.5633902913547365
  outer loop
    vertex 5.171572875253809 35.999999999999986 17.828427124746142
    vertex 7.000000000000001 37.999999999999986 16.732050807568875
    vertex 6.585786437626908 37.999999999999986 16.414213562373092
  endloop
endfacet
facet normal -0.4323045753218402 0.7040625922196324 0.5633902913547365
  outer loop
    vertex 7.000000000000001 37.999999999999986 16.732050807568875
    vertex 5.171572875253809 35.999999999999986 17.828427124746142
    vertex 5.99999999999998 35.999999999999986 18.46410161513773
  endloop
endfacet
facet normal -0.2717580168978102 0.7040625922196329 0.6560818900783199
  outer loop
    vertex 5.99999999999998 35.999999999999986 18.46410161513773
    vertex 7.482361909794959 37.999999999999986 16.931851652578136
    vertex 7.000000000000001 37.999999999999986 16.732050807568875
  endloop
endfacet
facet normal -0.2717580168978102 0.7040625922196329 0.6560818900783199
  outer loop
    vertex 7.482361909794959 37.999999999999986 16.931851652578136
    vertex 5.99999999999998 35.999999999999986 18.46410161513773
    vertex 6.964723819589894 35.999999999999986 18.86370330515624
  endloop
endfacet
facet normal -0.09269159872357097 0.7040625922196304 0.7040625922196427
  outer loop
    vertex 7.999999999999991 35.999999999999986 18.999999999999964
    vertex 7.482361909794959 37.999999999999986 16.931851652578136
    vertex 6.964723819589894 35.999999999999986 18.86370330515624
  endloop
endfacet
facet normal -0.09269159872357097 0.7040625922196304 0.7040625922196427
  outer loop
    vertex 7.482361909794959 37.999999999999986 16.931851652578136
    vertex 7.999999999999991 35.999999999999986 18.999999999999964
    vertex 8.000000000000002 37.999999999999986 17.0
  endloop
endfacet
facet normal 0.09269159872357242 0.7040625922196297 0.7040625922196432
  outer loop
    vertex 9.035276180410074 35.999999999999986 18.86370330515624
    vertex 8.000000000000002 37.999999999999986 17.0
    vertex 7.999999999999991 35.999999999999986 18.999999999999964
  endloop
endfacet
facet normal 0.09269159872357242 0.7040625922196297 0.7040625922196432
  outer loop
    vertex 8.000000000000002 37.999999999999986 17.0
    vertex 9.035276180410074 35.999999999999986 18.86370330515624
    vertex 8.517638090205043 37.999999999999986 16.931851652578136
  endloop
endfacet
facet normal 0.27175801689780993 0.7040625922196306 0.6560818900783224
  outer loop
    vertex 8.517638090205043 37.999999999999986 16.931851652578136
    vertex 9.999999999999993 35.999999999999986 18.46410161513773
    vertex 9.000000000000002 37.999999999999986 16.732050807568875
  endloop
endfacet
facet normal 0.27175801689780993 0.7040625922196306 0.6560818900783224
  outer loop
    vertex 9.999999999999993 35.999999999999986 18.46410161513773
    vertex 8.517638090205043 37.999999999999986 16.931851652578136
    vertex 9.035276180410074 35.999999999999986 18.86370330515624
  endloop
endfacet
facet normal 0.43230457532183514 0.7040625922196302 0.5633902913547434
  outer loop
    vertex 9.000000000000002 37.999999999999986 16.732050807568875
    vertex 10.828427124746185 35.999999999999986 17.828427124746142
    vertex 9.414213562373096 37.999999999999986 16.414213562373096
  endloop
endfacet
facet normal 0.43230457532183514 0.7040625922196302 0.5633902913547434
  outer loop
    vertex 10.828427124746185 35.999999999999986 17.828427124746142
    vertex 9.000000000000002 37.999999999999986 16.732050807568875
    vertex 9.999999999999993 35.999999999999986 18.46410161513773
  endloop
endfacet
facet normal 0.5633902913547444 0.7040625922196309 0.432304575321833
  outer loop
    vertex 9.414213562373096 37.999999999999986 16.414213562373096
    vertex 11.46410161513775 35.999999999999986 16.999999999999968
    vertex 9.732050807568879 37.999999999999986 16.0
  endloop
endfacet
facet normal 0.5633902913547444 0.7040625922196309 0.432304575321833
  outer loop
    vertex 11.46410161513775 35.999999999999986 16.999999999999968
    vertex 9.414213562373096 37.999999999999986 16.414213562373096
    vertex 10.828427124746185 35.999999999999986 17.828427124746142
  endloop
endfacet
facet normal 0.6560818900783194 0.7040625922196326 0.2717580168978118
  outer loop
    vertex 9.732050807568879 37.999999999999986 16.0
    vertex 11.863703305156262 35.999999999999986 16.035276180410058
    vertex 9.931851652578137 37.999999999999986 15.517638090205043
  endloop
endfacet
facet normal 0.6560818900783194 0.7040625922196326 0.2717580168978118
  outer loop
    vertex 11.863703305156262 35.999999999999986 16.035276180410058
    vertex 9.732050807568879 37.999999999999986 16.0
    vertex 11.46410161513775 35.999999999999986 16.999999999999968
  endloop
endfacet
facet normal 0.7040625922196371 0.7040625922196349 0.09269159872358011
  outer loop
    vertex 10.000000000000002 37.999999999999986 15.0
    vertex 11.863703305156262 35.999999999999986 16.035276180410058
    vertex 12.000000000000005 35.999999999999986 14.999999999999966
  endloop
endfacet
facet normal 0.7040625922196371 0.7040625922196349 0.09269159872358011
  outer loop
    vertex 11.863703305156262 35.999999999999986 16.035276180410058
    vertex 10.000000000000002 37.999999999999986 15.0
    vertex 9.931851652578137 37.999999999999986 15.517638090205043
  endloop
endfacet
facet normal -0.7008180433725618 0.7073481053422462 0.09226444576427356
  outer loop
    vertex 24.118296143735048 35.999999999999986 16.04009941354291
    vertex 25.999999999999996 37.999999999999986 15.0
    vertex 23.981364458203 35.999999999999986 14.999999999999966
  endloop
endfacet
facet normal -0.7008180433725618 0.7073481053422462 0.09226444576427356
  outer loop
    vertex 25.999999999999996 37.999999999999986 15.0
    vertex 24.118296143735048 35.999999999999986 16.04009941354291
    vertex 26.06814834742186 37.999999999999986 15.517638090205041
  endloop
endfacet
facet normal -0.09226444576430572 0.7073481053422385 0.7008180433725656
  outer loop
    vertex 26.95990058645705 35.999999999999986 18.88170385626487
    vertex 28.0 37.999999999999986 17.0
    vertex 27.482361909794953 37.999999999999986 16.931851652578136
  endloop
endfacet
facet normal -0.09226444576430572 0.7073481053422385 0.7008180433725656
  outer loop
    vertex 28.0 37.999999999999986 17.0
    vertex 26.95990058645705 35.999999999999986 18.88170385626487
    vertex 27.999999999999993 35.999999999999986 19.01863554179698
  endloop
endfacet
facet normal -0.6530584518732886 0.7073481053422485 0.27050566778830176
  outer loop
    vertex 24.118296143735048 35.999999999999986 16.04009941354291
    vertex 26.26794919243112 37.999999999999986 15.999999999999998
    vertex 26.06814834742186 37.999999999999986 15.517638090205041
  endloop
endfacet
facet normal -0.6530584518732886 0.7073481053422485 0.27050566778830176
  outer loop
    vertex 26.26794919243112 37.999999999999986 15.999999999999998
    vertex 24.118296143735048 35.999999999999986 16.04009941354291
    vertex 24.51975953225273 35.999999999999986 17.00931777089853
  endloop
endfacet
facet normal -0.5607940061089824 0.7073481053422483 0.4303123755842611
  outer loop
    vertex 24.51975953225273 35.999999999999986 17.00931777089853
    vertex 26.585786437626908 37.999999999999986 16.414213562373092
    vertex 26.26794919243112 37.999999999999986 15.999999999999998
  endloop
endfacet
facet normal -0.5607940061089824 0.7073481053422483 0.4303123755842611
  outer loop
    vertex 26.585786437626908 37.999999999999986 16.414213562373092
    vertex 24.51975953225273 35.999999999999986 17.00931777089853
    vertex 25.15839555727802 35.999999999999986 17.841604442721934
  endloop
endfacet
facet normal -0.43031237558424645 0.7073481053422432 0.560794006109
  outer loop
    vertex 25.15839555727802 35.999999999999986 17.841604442721934
    vertex 27.0 37.999999999999986 16.732050807568875
    vertex 26.585786437626908 37.999999999999986 16.414213562373092
  endloop
endfacet
facet normal -0.43031237558424645 0.7073481053422432 0.560794006109
  outer loop
    vertex 27.0 37.999999999999986 16.732050807568875
    vertex 25.15839555727802 35.999999999999986 17.841604442721934
    vertex 25.990682229101584 35.999999999999986 18.480240467747294
  endloop
endfacet
facet normal -0.2705056677882848 0.7073481053422417 0.653058451873303
  outer loop
    vertex 25.990682229101584 35.999999999999986 18.480240467747294
    vertex 27.482361909794953 37.999999999999986 16.931851652578136
    vertex 27.0 37.999999999999986 16.732050807568875
  endloop
endfacet
facet normal -0.2705056677882848 0.7073481053422417 0.653058451873303
  outer loop
    vertex 27.482361909794953 37.999999999999986 16.931851652578136
    vertex 25.990682229101584 35.999999999999986 18.480240467747294
    vertex 26.95990058645705 35.999999999999986 18.88170385626487
  endloop
endfacet
facet normal 0.09226444576430096 0.707348105342239 0.7008180433725656
  outer loop
    vertex 28.0 37.999999999999986 17.0
    vertex 29.040099413543004 35.999999999999986 18.88170385626487
    vertex 28.51763809020504 37.999999999999986 16.931851652578136
  endloop
endfacet
facet normal 0.09226444576430096 0.707348105342239 0.7008180433725656
  outer loop
    vertex 29.040099413543004 35.999999999999986 18.88170385626487
    vertex 28.0 37.999999999999986 17.0
    vertex 27.999999999999993 35.999999999999986 19.01863554179698
  endloop
endfacet
facet normal 0.2705056677882686 0.7073481053422479 0.6530584518733029
  outer loop
    vertex 28.51763809020504 37.999999999999986 16.931851652578136
    vertex 30.009317770898537 35.999999999999986 18.480240467747294
    vertex 28.999999999999996 37.999999999999986 16.732050807568875
  endloop
endfacet
facet normal 0.2705056677882686 0.7073481053422479 0.6530584518733029
  outer loop
    vertex 30.009317770898537 35.999999999999986 18.480240467747294
    vertex 28.51763809020504 37.999999999999986 16.931851652578136
    vertex 29.040099413543004 35.999999999999986 18.88170385626487
  endloop
endfacet
facet normal 0.700818043372543 0.7073481053422599 -0.09226444576431216
  outer loop
    vertex 29.93185165257814 37.999999999999986 14.48236190979496
    vertex 32.0186355417971 35.999999999999986 14.999999999999966
    vertex 31.881703856264977 35.999999999999986 13.959900586456984
  endloop
endfacet
facet normal 0.700818043372543 0.7073481053422599 -0.09226444576431216
  outer loop
    vertex 32.0186355417971 35.999999999999986 14.999999999999966
    vertex 29.93185165257814 37.999999999999986 14.48236190979496
    vertex 30.0 37.999999999999986 15.0
  endloop
endfacet
facet normal 0.653058451873274 0.707348105342257 -0.27050566778831436
  outer loop
    vertex 29.73205080756888 37.999999999999986 14.000000000000002
    vertex 31.881703856264977 35.999999999999986 13.959900586456984
    vertex 31.480240467747286 35.999999999999986 12.990682229101434
  endloop
endfacet
facet normal 0.653058451873274 0.707348105342257 -0.27050566778831436
  outer loop
    vertex 31.881703856264977 35.999999999999986 13.959900586456984
    vertex 29.73205080756888 37.999999999999986 14.000000000000002
    vertex 29.93185165257814 37.999999999999986 14.48236190979496
  endloop
endfacet
facet normal -0.27050566778831114 0.7073481053422546 -0.6530584518732782
  outer loop
    vertex 25.990682229101584 35.999999999999986 11.519759532252666
    vertex 27.48236190979496 37.999999999999986 13.068148347421864
    vertex 26.95990058645705 35.999999999999986 11.118296143735016
  endloop
endfacet
facet normal -0.27050566778831114 0.7073481053422546 -0.6530584518732782
  outer loop
    vertex 27.48236190979496 37.999999999999986 13.068148347421864
    vertex 25.990682229101584 35.999999999999986 11.519759532252666
    vertex 27.0 37.999999999999986 13.267949192431123
  endloop
endfacet
facet normal -0.0922644457643128 0.7073481053422602 -0.7008180433725426
  outer loop
    vertex 26.95990058645705 35.999999999999986 11.118296143735016
    vertex 28.0 37.999999999999986 13.000000000000002
    vertex 27.999999999999993 35.999999999999986 10.981364458202892
  endloop
endfacet
facet normal -0.0922644457643128 0.7073481053422602 -0.7008180433725426
  outer loop
    vertex 28.0 37.999999999999986 13.000000000000002
    vertex 26.95990058645705 35.999999999999986 11.118296143735016
    vertex 27.48236190979496 37.999999999999986 13.068148347421864
  endloop
endfacet
facet normal 0.5607940061089945 0.7073481053422552 0.4303123755842339
  outer loop
    vertex 29.414213562373092 37.999999999999986 16.414213562373096
    vertex 31.480240467747286 35.999999999999986 17.00931777089853
    vertex 29.73205080756888 37.999999999999986 16.0
  endloop
endfacet
facet normal 0.5607940061089945 0.7073481053422552 0.4303123755842339
  outer loop
    vertex 31.480240467747286 35.999999999999986 17.00931777089853
    vertex 29.414213562373092 37.999999999999986 16.414213562373096
    vertex 30.841604442722044 35.999999999999986 17.841604442721962
  endloop
endfacet
facet normal 0.7008180433725446 0.707348105342258 0.09226444576431488
  outer loop
    vertex 30.0 37.999999999999986 15.0
    vertex 31.881703856264977 35.999999999999986 16.040099413542915
    vertex 32.0186355417971 35.999999999999986 14.999999999999966
  endloop
endfacet
facet normal 0.7008180433725446 0.707348105342258 0.09226444576431488
  outer loop
    vertex 31.881703856264977 35.999999999999986 16.040099413542915
    vertex 30.0 37.999999999999986 15.0
    vertex 29.93185165257814 37.999999999999986 15.517638090205043
  endloop
endfacet
facet normal 0.6530584518732835 0.7073481053422522 0.2705056677883042
  outer loop
    vertex 29.73205080756888 37.999999999999986 16.0
    vertex 31.881703856264977 35.999999999999986 16.040099413542915
    vertex 29.93185165257814 37.999999999999986 15.517638090205043
  endloop
endfacet
facet normal 0.6530584518732835 0.7073481053422522 0.2705056677883042
  outer loop
    vertex 31.881703856264977 35.999999999999986 16.040099413542915
    vertex 29.73205080756888 37.999999999999986 16.0
    vertex 31.480240467747286 35.999999999999986 17.00931777089853
  endloop
endfacet
facet normal -0.43031237558422525 0.7073481053422525 -0.5607940061090049
  outer loop
    vertex 25.15839555727802 35.999999999999986 12.158395557277977
    vertex 27.0 37.999999999999986 13.267949192431123
    vertex 25.990682229101584 35.999999999999986 11.519759532252666
  endloop
endfacet
facet normal -0.43031237558422525 0.7073481053422525 -0.5607940061090049
  outer loop
    vertex 27.0 37.999999999999986 13.267949192431123
    vertex 25.15839555727802 35.999999999999986 12.158395557277977
    vertex 26.585786437626908 37.999999999999986 13.585786437626904
  endloop
endfacet
facet normal 0.5607940061089915 0.7073481053422602 -0.43031237558422974
  outer loop
    vertex 29.414213562373092 37.999999999999986 13.585786437626908
    vertex 31.480240467747286 35.999999999999986 12.990682229101434
    vertex 30.841604442722044 35.999999999999986 12.158395557277995
  endloop
endfacet
facet normal 0.5607940061089915 0.7073481053422602 -0.43031237558422974
  outer loop
    vertex 31.480240467747286 35.999999999999986 12.990682229101434
    vertex 29.414213562373092 37.999999999999986 13.585786437626908
    vertex 29.73205080756888 37.999999999999986 14.000000000000002
  endloop
endfacet
facet normal 0.4303123755842404 0.7073481053422619 -0.5607940061089813
  outer loop
    vertex 28.999999999999996 37.999999999999986 13.267949192431125
    vertex 30.841604442722044 35.999999999999986 12.158395557277995
    vertex 30.009317770898537 35.999999999999986 11.519759532252666
  endloop
endfacet
facet normal 0.4303123755842404 0.7073481053422619 -0.5607940061089813
  outer loop
    vertex 30.841604442722044 35.999999999999986 12.158395557277995
    vertex 28.999999999999996 37.999999999999986 13.267949192431125
    vertex 29.414213562373092 37.999999999999986 13.585786437626908
  endloop
endfacet
facet normal 0.2705056677882963 0.7073481053422609 -0.6530584518732775
  outer loop
    vertex 28.51763809020504 37.999999999999986 13.068148347421864
    vertex 30.009317770898537 35.999999999999986 11.519759532252666
    vertex 29.040099413543004 35.999999999999986 11.118296143735016
  endloop
endfacet
facet normal 0.2705056677882963 0.7073481053422609 -0.6530584518732775
  outer loop
    vertex 30.009317770898537 35.999999999999986 11.519759532252666
    vertex 28.51763809020504 37.999999999999986 13.068148347421864
    vertex 28.999999999999996 37.999999999999986 13.267949192431125
  endloop
endfacet
facet normal 0.09226444576430778 0.7073481053422607 -0.7008180433725428
  outer loop
    vertex 28.0 37.999999999999986 13.000000000000002
    vertex 28.5200497067715 35.999999999999986 11.049830300968953
    vertex 27.999999999999993 35.999999999999986 10.981364458202892
  endloop
endfacet
facet normal 0.09226444576430778 0.7073481053422607 -0.7008180433725428
  outer loop
    vertex 28.5200497067715 35.999999999999986 11.049830300968953
    vertex 28.0 37.999999999999986 13.000000000000002
    vertex 29.040099413543004 35.999999999999986 11.118296143735016
  endloop
endfacet
facet normal 0.09226444576430778 0.7073481053422607 -0.7008180433725428
  outer loop
    vertex 29.040099413543004 35.999999999999986 11.118296143735016
    vertex 28.0 37.999999999999986 13.000000000000002
    vertex 28.51763809020504 37.999999999999986 13.068148347421864
  endloop
endfacet
facet normal 0.4303123755842445 0.7073481053422552 0.5607940061089864
  outer loop
    vertex 28.999999999999996 37.999999999999986 16.732050807568875
    vertex 30.841604442722044 35.999999999999986 17.841604442721962
    vertex 29.414213562373092 37.999999999999986 16.414213562373096
  endloop
endfacet
facet normal 0.4303123755842445 0.7073481053422552 0.5607940061089864
  outer loop
    vertex 30.841604442722044 35.999999999999986 17.841604442721962
    vertex 28.999999999999996 37.999999999999986 16.732050807568875
    vertex 30.009317770898537 35.999999999999986 18.480240467747294
  endloop
endfacet
facet normal -0.5607940061089874 0.707348105342255 -0.43031237558424396
  outer loop
    vertex 24.51975953225273 35.999999999999986 12.990682229101434
    vertex 26.585786437626908 37.999999999999986 13.585786437626904
    vertex 25.15839555727802 35.999999999999986 12.158395557277977
  endloop
endfacet
facet normal -0.5607940061089874 0.707348105342255 -0.43031237558424396
  outer loop
    vertex 26.585786437626908 37.999999999999986 13.585786437626904
    vertex 24.51975953225273 35.999999999999986 12.990682229101434
    vertex 26.26794919243112 37.999999999999986 14.0
  endloop
endfacet
facet normal -0.6530584518732789 0.7073481053422536 -0.2705056677883117
  outer loop
    vertex 24.118296143735048 35.999999999999986 13.959900586456984
    vertex 26.26794919243112 37.999999999999986 14.0
    vertex 24.51975953225273 35.999999999999986 12.990682229101434
  endloop
endfacet
facet normal -0.6530584518732789 0.7073481053422536 -0.2705056677883117
  outer loop
    vertex 26.26794919243112 37.999999999999986 14.0
    vertex 24.118296143735048 35.999999999999986 13.959900586456984
    vertex 26.068148347421868 37.999999999999986 14.482361909794959
  endloop
endfacet
facet normal -0.7008180433725597 0.7073481053422487 -0.09226444576427155
  outer loop
    vertex 23.981364458203 35.999999999999986 14.999999999999966
    vertex 26.068148347421868 37.999999999999986 14.482361909794959
    vertex 24.118296143735048 35.999999999999986 13.959900586456984
  endloop
endfacet
facet normal -0.7008180433725597 0.7073481053422487 -0.09226444576427155
  outer loop
    vertex 26.068148347421868 37.999999999999986 14.482361909794959
    vertex 23.981364458203 35.999999999999986 14.999999999999966
    vertex 25.999999999999996 37.999999999999986 15.0
  endloop
endfacet
facet normal 0.4472135954999578 -0.894427190999916 -1.3152133346155209e-33
  outer loop
    vertex 3.9999999999999996 2.999999999999999 24.0
    vertex 1.9999999999999998 1.9999999999999996 1.5
    vertex 3.9999999999999996 2.999999999999999 1.5
  endloop
endfacet
facet normal 0.4472135954999578 -0.894427190999916 -1.3152133346155209e-33
  outer loop
    vertex 1.9999999999999998 1.9999999999999996 1.5
    vertex 3.9999999999999996 2.999999999999999 24.0
    vertex 1.9999999999999998 1.9999999999999996 24.0
  endloop
endfacet
facet normal 0.4472135954999578 0.894427190999916 -0.0
  outer loop
    vertex 1.9999999999999998 1.9999999999999996 24.0
    vertex 3.9999999999999996 0.9999999999999999 1.5
    vertex 1.9999999999999998 1.9999999999999996 1.5
  endloop
endfacet
facet normal 0.4472135954999578 0.894427190999916 -0.0
  outer loop
    vertex 3.9999999999999996 0.9999999999999999 1.5
    vertex 1.9999999999999998 1.9999999999999996 24.0
    vertex 3.9999999999999996 0.9999999999999999 24.0
  endloop
endfacet
facet normal 0.0 0.0 1.0
  outer loop
    vertex 32.0 0.49999999999999994 1.5
    vertex 3.9999999999999996 0.9999999999999999 1.5
    vertex 3.999999999999999 0.49999999999999994 1.5
  endloop
endfacet
facet normal 0.0 0.0 1.0
  outer loop
    vertex 3.9999999999999996 0.9999999999999999 1.5
    vertex 32.0 0.49999999999999994 1.5
    vertex 3.9999999999999996 2.999999999999999 1.5
  endloop
endfacet
facet normal 0.0 0.0 1.0
  outer loop
    vertex 3.9999999999999996 2.999999999999999 1.5
    vertex 32.0 0.49999999999999994 1.5
    vertex 3.9999999999999996 3.499999999999999 1.5
  endloop
endfacet
facet normal 0.0 0.0 1.0
  outer loop
    vertex 34.0 1.9999999999999998 1.5
    vertex 32.0 3.0 1.5
    vertex 32.0 0.9999999999999999 1.5
  endloop
endfacet
facet normal 0.0 0.0 1.0
  outer loop
    vertex 3.9999999999999996 3.499999999999999 1.5
    vertex 2.000000000000001 35.99999999999999 1.5
    vertex 2.000000000000001 3.4999999999999956 1.5
  endloop
endfacet
facet normal 0.0 0.0 1.0
  outer loop
    vertex 2.000000000000001 35.99999999999999 1.5
    vertex 3.9999999999999996 3.499999999999999 1.5
    vertex 34.0 35.99999999999999 1.5
  endloop
endfacet
facet normal 0.0 0.0 1.0
  outer loop
    vertex 34.0 35.99999999999999 1.5
    vertex 3.9999999999999996 3.499999999999999 1.5
    vertex 32.0 3.499999999999999 1.5
  endloop
endfacet
facet normal 0.0 0.0 1.0
  outer loop
    vertex 32.0 3.499999999999999 1.5
    vertex 3.9999999999999996 3.499999999999999 1.5
    vertex 32.0 0.49999999999999994 1.5
  endloop
endfacet
facet normal 0.0 0.0 1.0
  outer loop
    vertex 32.0 3.499999999999999 1.5
    vertex 32.0 0.49999999999999994 1.5
    vertex 32.0 0.9999999999999999 1.5
  endloop
endfacet
facet normal 0.0 0.0 1.0
  outer loop
    vertex 32.0 3.499999999999999 1.5
    vertex 32.0 0.9999999999999999 1.5
    vertex 32.0 3.0 1.5
  endloop
endfacet
facet normal 0.0 0.0 1.0
  outer loop
    vertex 34.0 35.99999999999999 1.5
    vertex 32.0 3.499999999999999 1.5
    vertex 34.0 3.499999999999999 1.5
  endloop
endfacet
facet normal 0.0 0.0 1.0
  outer loop
    vertex 3.9999999999999996 2.999999999999999 1.5
    vertex 1.9999999999999998 1.9999999999999996 1.5
    vertex 3.9999999999999996 0.9999999999999999 1.5
  endloop
endfacet
facet normal -0.44721359549995865 -0.8944271909999155 -9.11499353961531e-33
  outer loop
    vertex 34.0 1.9999999999999998 23.999999999999996
    vertex 32.0 3.0 1.5
    vertex 34.0 1.9999999999999998 1.5
  endloop
endfacet
facet normal -0.44721359549995865 -0.8944271909999155 -9.11499353961531e-33
  outer loop
    vertex 32.0 3.0 1.5
    vertex 34.0 1.9999999999999998 23.999999999999996
    vertex 32.0 3.0 24.0
  endloop
endfacet
facet normal -0.44721359549995854 0.8944271909999155 -8.286357763286646e-33
  outer loop
    vertex 32.0 0.9999999999999999 24.0
    vertex 34.0 1.9999999999999998 1.5
    vertex 32.0 0.9999999999999999 1.5
  endloop
endfacet
facet normal -0.44721359549995854 0.8944271909999155 -8.286357763286646e-33
  outer loop
    vertex 34.0 1.9999999999999998 1.5
    vertex 32.0 0.9999999999999999 24.0
    vertex 34.0 1.9999999999999998 23.999999999999996
  endloop
endfacet
facet normal 2.050884714580285e-17 -1.1390516663494111e-17 1.0
  outer loop
    vertex 0.49999999999999994 0.5 24.0
    vertex 1.9999999999999998 1.9999999999999996 24.0
    vertex 0.49999999999999994 38.00000000000003 24.0
  endloop
endfacet
facet normal 2.050884714580285e-17 -1.1390516663494111e-17 1.0
  outer loop
    vertex 1.9999999999999998 1.9999999999999996 24.0
    vertex 0.49999999999999994 0.5 24.0
    vertex 3.999999999999999 0.5 24.0
  endloop
endfacet
facet normal 2.050884714580285e-17 -1.1390516663494111e-17 1.0
  outer loop
    vertex 1.9999999999999998 1.9999999999999996 24.0
    vertex 3.999999999999999 0.5 24.0
    vertex 3.9999999999999996 0.9999999999999999 24.0
  endloop
endfacet
facet normal 2.050884714580285e-17 -1.1390516663494111e-17 1.0
  outer loop
    vertex 3.9999999999999996 2.999999999999999 24.0
    vertex 2.000000000000001 3.4999999999999956 24.0
    vertex 1.9999999999999998 1.9999999999999996 24.0
  endloop
endfacet
facet normal 2.050884714580285e-17 -1.1390516663494111e-17 1.0
  outer loop
    vertex 2.000000000000001 3.4999999999999956 24.0
    vertex 3.9999999999999996 2.999999999999999 24.0
    vertex 3.9999999999999996 3.499999999999999 24.0
  endloop
endfacet
facet normal 2.050884714580285e-17 -1.1390516663494111e-17 1.0
  outer loop
    vertex 35.5 0.5 24.0
    vertex 32.0 0.9999999999999999 24.0
    vertex 32.0 0.5 24.0
  endloop
endfacet
facet normal 2.050884714580285e-17 -1.1390516663494111e-17 1.0
  outer loop
    vertex 32.0 0.9999999999999999 24.0
    vertex 35.5 0.5 24.0
    vertex 34.0 1.9999999999999998 23.999999999999996
  endloop
endfacet
facet normal 2.050884714580285e-17 -1.1390516663494111e-17 1.0
  outer loop
    vertex 34.0 1.9999999999999998 23.999999999999996
    vertex 35.5 0.5 24.0
    vertex 34.0 3.499999999999999 24.0
  endloop
endfacet
facet normal 2.050884714580285e-17 -1.1390516663494111e-17 1.0
  outer loop
    vertex 34.0 3.499999999999999 24.0
    vertex 35.5 0.5 24.0
    vertex 34.0 35.99999999999999 24.0
  endloop
endfacet
facet normal 2.050884714580285e-17 -1.1390516663494111e-17 1.0
  outer loop
    vertex 0.49999999999999994 38.00000000000003 24.0
    vertex 2.000000000000001 35.99999999999999 24.0
    vertex 35.5 38.00000000000003 24.0
  endloop
endfacet
facet normal 2.050884714580285e-17 -1.1390516663494111e-17 1.0
  outer loop
    vertex 2.000000000000001 35.99999999999999 24.0
    vertex 0.49999999999999994 38.00000000000003 24.0
    vertex 1.9999999999999998 1.9999999999999996 24.0
  endloop
endfacet
facet normal 2.050884714580285e-17 -1.1390516663494111e-17 1.0
  outer loop
    vertex 2.000000000000001 35.99999999999999 24.0
    vertex 1.9999999999999998 1.9999999999999996 24.0
    vertex 2.000000000000001 3.4999999999999956 24.0
  endloop
endfacet
facet normal 2.050884714580285e-17 -1.1390516663494111e-17 1.0
  outer loop
    vertex 35.5 38.00000000000003 24.0
    vertex 2.000000000000001 35.99999999999999 24.0
    vertex 34.0 35.99999999999999 24.0
  endloop
endfacet
facet normal 2.050884714580285e-17 -1.1390516663494111e-17 1.0
  outer loop
    vertex 35.5 38.00000000000003 24.0
    vertex 34.0 35.99999999999999 24.0
    vertex 35.5 0.5 24.0
  endloop
endfacet
facet normal 2.050884714580285e-17 -1.1390516663494111e-17 1.0
  outer loop
    vertex 34.0 1.9999999999999998 23.999999999999996
    vertex 32.0 3.499999999999999 24.0
    vertex 32.0 3.0 24.0
  endloop
endfacet
facet normal 2.050884714580285e-17 -1.1390516663494111e-17 1.0
  outer loop
    vertex 32.0 3.499999999999999 24.0
    vertex 34.0 1.9999999999999998 23.999999999999996
    vertex 34.0 3.499999999999999 24.0
  endloop
endfacet
facet normal 5.39302169859169e-17 -1.0 6.450564160411334e-17
  outer loop
    vertex 26.95990058645705 35.999999999999986 11.118296143735016
    vertex 7.999999999999991 35.999999999999986 10.999999999999966
    vertex 27.999999999999993 35.999999999999986 10.981364458202892
  endloop
endfacet
facet normal 5.39302169859169e-17 -1.0 6.450564160411334e-17
  outer loop
    vertex 7.999999999999991 35.999999999999986 10.999999999999966
    vertex 26.95990058645705 35.999999999999986 11.118296143735016
    vertex 9.035276180410074 35.999999999999986 11.13629669484373
  endloop
endfacet
facet normal 5.39302169859169e-17 -1.0 6.450564160411334e-17
  outer loop
    vertex 9.035276180410074 35.999999999999986 11.13629669484373
    vertex 26.95990058645705 35.999999999999986 11.118296143735016
    vertex 25.990682229101584 35.999999999999986 11.519759532252666
  endloop
endfacet
facet normal 5.39302169859169e-17 -1.0 6.450564160411334e-17
  outer loop
    vertex 9.035276180410074 35.999999999999986 11.13629669484373
    vertex 25.990682229101584 35.999999999999986 11.519759532252666
    vertex 9.999999999999996 35.999999999999986 11.53589838486223
  endloop
endfacet
facet normal 5.39302169859169e-17 -1.0 6.450564160411334e-17
  outer loop
    vertex 9.999999999999996 35.999999999999986 11.53589838486223
    vertex 25.990682229101584 35.999999999999986 11.519759532252666
    vertex 25.15839555727802 35.999999999999986 12.158395557277977
  endloop
endfacet
facet normal 5.39302169859169e-17 -1.0 6.450564160411334e-17
  outer loop
    vertex 9.999999999999996 35.999999999999986 11.53589838486223
    vertex 25.15839555727802 35.999999999999986 12.158395557277977
    vertex 10.828427124746185 35.999999999999986 12.171572875253805
  endloop
endfacet
facet normal 5.39302169859169e-17 -1.0 6.450564160411334e-17
  outer loop
    vertex 10.828427124746185 35.999999999999986 12.171572875253805
    vertex 25.15839555727802 35.999999999999986 12.158395557277977
    vertex 24.51975953225273 35.999999999999986 12.990682229101434
  endloop
endfacet
facet normal 5.39302169859169e-17 -1.0 6.450564160411334e-17
  outer loop
    vertex 10.828427124746185 35.999999999999986 12.171572875253805
    vertex 24.51975953225273 35.999999999999986 12.990682229101434
    vertex 11.46410161513775 35.999999999999986 13.00000000000001
  endloop
endfacet
facet normal 5.39302169859169e-17 -1.0 6.450564160411334e-17
  outer loop
    vertex 11.46410161513775 35.999999999999986 13.00000000000001
    vertex 24.51975953225273 35.999999999999986 12.990682229101434
    vertex 24.118296143735048 35.999999999999986 13.959900586456984
  endloop
endfacet
facet normal 5.39302169859169e-17 -1.0 6.450564160411334e-17
  outer loop
    vertex 11.46410161513775 35.999999999999986 13.00000000000001
    vertex 24.118296143735048 35.999999999999986 13.959900586456984
    vertex 11.863703305156262 35.999999999999986 13.964723819589898
  endloop
endfacet
facet normal 5.39302169859169e-17 -1.0 6.450564160411334e-17
  outer loop
    vertex 11.863703305156262 35.999999999999986 13.964723819589898
    vertex 24.118296143735048 35.999999999999986 13.959900586456984
    vertex 23.981364458203 35.999999999999986 14.999999999999966
  endloop
endfacet
facet normal 5.39302169859169e-17 -1.0 6.450564160411334e-17
  outer loop
    vertex 11.863703305156262 35.999999999999986 13.964723819589898
    vertex 23.981364458203 35.999999999999986 14.999999999999966
    vertex 12.000000000000005 35.999999999999986 14.999999999999966
  endloop
endfacet
facet normal 5.39302169859169e-17 -1.0 6.450564160411334e-17
  outer loop
    vertex 12.000000000000005 35.999999999999986 14.999999999999966
    vertex 23.981364458203 35.999999999999986 14.999999999999966
    vertex 24.118296143735048 35.999999999999986 16.04009941354291
  endloop
endfacet
facet normal 5.39302169859169e-17 -1.0 6.450564160411334e-17
  outer loop
    vertex 12.000000000000005 35.999999999999986 14.999999999999966
    vertex 24.118296143735048 35.999999999999986 16.04009941354291
    vertex 11.863703305156262 35.999999999999986 16.035276180410058
  endloop
endfacet
facet normal 5.39302169859169e-17 -1.0 6.450564160411334e-17
  outer loop
    vertex 11.863703305156262 35.999999999999986 16.035276180410058
    vertex 24.118296143735048 35.999999999999986 16.04009941354291
    vertex 11.46410161513775 35.999999999999986 16.999999999999968
  endloop
endfacet
facet normal 5.39302169859169e-17 -1.0 6.450564160411334e-17
  outer loop
    vertex 11.46410161513775 35.999999999999986 16.999999999999968
    vertex 24.118296143735048 35.999999999999986 16.04009941354291
    vertex 24.51975953225273 35.999999999999986 17.00931777089853
  endloop
endfacet
facet normal 5.39302169859169e-17 -1.0 6.450564160411334e-17
  outer loop
    vertex 11.46410161513775 35.999999999999986 16.999999999999968
    vertex 24.51975953225273 35.999999999999986 17.00931777089853
    vertex 10.828427124746185 35.999999999999986 17.828427124746142
  endloop
endfacet
facet normal 5.39302169859169e-17 -1.0 6.450564160411334e-17
  outer loop
    vertex 10.828427124746185 35.999999999999986 17.828427124746142
    vertex 24.51975953225273 35.999999999999986 17.00931777089853
    vertex 25.15839555727802 35.999999999999986 17.841604442721934
  endloop
endfacet
facet normal 5.39302169859169e-17 -1.0 6.450564160411334e-17
  outer loop
    vertex 10.828427124746185 35.999999999999986 17.828427124746142
    vertex 25.15839555727802 35.999999999999986 17.841604442721934
    vertex 9.999999999999993 35.999999999999986 18.46410161513773
  endloop
endfacet
facet normal 5.39302169859169e-17 -1.0 6.450564160411334e-17
  outer loop
    vertex 9.999999999999993 35.999999999999986 18.46410161513773
    vertex 25.15839555727802 35.999999999999986 17.841604442721934
    vertex 25.990682229101584 35.999999999999986 18.480240467747294
  endloop
endfacet
facet normal 5.39302169859169e-17 -1.0 6.450564160411334e-17
  outer loop
    vertex 9.999999999999993 35.999999999999986 18.46410161513773
    vertex 25.990682229101584 35.999999999999986 18.480240467747294
    vertex 9.035276180410074 35.999999999999986 18.86370330515624
  endloop
endfacet
facet normal 5.39302169859169e-17 -1.0 6.450564160411334e-17
  outer loop
    vertex 9.035276180410074 35.999999999999986 18.86370330515624
    vertex 25.990682229101584 35.999999999999986 18.480240467747294
    vertex 26.95990058645705 35.999999999999986 18.88170385626487
  endloop
endfacet
facet normal 5.39302169859169e-17 -1.0 6.450564160411334e-17
  outer loop
    vertex 9.035276180410074 35.999999999999986 18.86370330515624
    vertex 26.95990058645705 35.999999999999986 18.88170385626487
    vertex 7.999999999999991 35.999999999999986 18.999999999999964
  endloop
endfacet
facet normal 5.39302169859169e-17 -1.0 6.450564160411334e-17
  outer loop
    vertex 7.999999999999991 35.999999999999986 18.999999999999964
    vertex 26.95990058645705 35.999999999999986 18.88170385626487
    vertex 27.999999999999993 35.999999999999986 19.01863554179698
  endloop
endfacet
facet normal 5.39302169859169e-17 -1.0 6.450564160411334e-17
  outer loop
    vertex 34.0 35.99999999999999 1.5
    vertex 29.040099413543004 35.999999999999986 11.118296143735016
    vertex 2.000000000000001 35.99999999999999 1.5
  endloop
endfacet
facet normal 5.39302169859169e-17 -1.0 6.450564160411334e-17
  outer loop
    vertex 29.040099413543004 35.999999999999986 11.118296143735016
    vertex 34.0 35.99999999999999 1.5
    vertex 30.009317770898537 35.999999999999986 11.519759532252666
  endloop
endfacet
facet normal 5.39302169859169e-17 -1.0 6.450564160411334e-17
  outer loop
    vertex 30.009317770898537 35.999999999999986 11.519759532252666
    vertex 34.0 35.99999999999999 1.5
    vertex 30.841604442722044 35.999999999999986 12.158395557277995
  endloop
endfacet
facet normal 5.39302169859169e-17 -1.0 6.450564160411334e-17
  outer loop
    vertex 30.841604442722044 35.999999999999986 12.158395557277995
    vertex 34.0 35.99999999999999 1.5
    vertex 31.480240467747286 35.999999999999986 12.990682229101434
  endloop
endfacet
facet normal 5.39302169859169e-17 -1.0 6.450564160411334e-17
  outer loop
    vertex 31.480240467747286 35.999999999999986 12.990682229101434
    vertex 34.0 35.99999999999999 1.5
    vertex 31.881703856264977 35.999999999999986 13.959900586456984
  endloop
endfacet
facet normal 5.39302169859169e-17 -1.0 6.450564160411334e-17
  outer loop
    vertex 31.881703856264977 35.999999999999986 13.959900586456984
    vertex 34.0 35.99999999999999 1.5
    vertex 34.0 35.99999999999999 24.0
  endloop
endfacet
facet normal 5.39302169859169e-17 -1.0 6.450564160411334e-17
  outer loop
    vertex 2.000000000000001 35.99999999999999 1.5
    vertex 29.040099413543004 35.999999999999986 11.118296143735016
    vertex 28.5200497067715 35.999999999999986 11.049830300968953
  endloop
endfacet
facet normal 5.39302169859169e-17 -1.0 6.450564160411334e-17
  outer loop
    vertex 2.000000000000001 35.99999999999999 1.5
    vertex 28.5200497067715 35.999999999999986 11.049830300968953
    vertex 27.999999999999993 35.999999999999986 10.981364458202892
  endloop
endfacet
facet normal 5.39302169859169e-17 -1.0 6.450564160411334e-17
  outer loop
    vertex 31.881703856264977 35.999999999999986 13.959900586456984
    vertex 34.0 35.99999999999999 24.0
    vertex 32.0186355417971 35.999999999999986 14.999999999999966
  endloop
endfacet
facet normal 5.39302169859169e-17 -1.0 6.450564160411334e-17
  outer loop
    vertex 32.0186355417971 35.999999999999986 14.999999999999966
    vertex 34.0 35.99999999999999 24.0
    vertex 31.881703856264977 35.999999999999986 16.040099413542915
  endloop
endfacet
facet normal 5.39302169859169e-17 -1.0 6.450564160411334e-17
  outer loop
    vertex 31.881703856264977 35.999999999999986 16.040099413542915
    vertex 34.0 35.99999999999999 24.0
    vertex 31.480240467747286 35.999999999999986 17.00931777089853
  endloop
endfacet
facet normal 5.39302169859169e-17 -1.0 6.450564160411334e-17
  outer loop
    vertex 31.480240467747286 35.999999999999986 17.00931777089853
    vertex 34.0 35.99999999999999 24.0
    vertex 30.841604442722044 35.999999999999986 17.841604442721962
  endloop
endfacet
facet normal 5.39302169859169e-17 -1.0 6.450564160411334e-17
  outer loop
    vertex 30.841604442722044 35.999999999999986 17.841604442721962
    vertex 34.0 35.99999999999999 24.0
    vertex 30.009317770898537 35.999999999999986 18.480240467747294
  endloop
endfacet
facet normal 5.39302169859169e-17 -1.0 6.450564160411334e-17
  outer loop
    vertex 30.009317770898537 35.999999999999986 18.480240467747294
    vertex 34.0 35.99999999999999 24.0
    vertex 29.040099413543004 35.999999999999986 18.88170385626487
  endloop
endfacet
facet normal 5.39302169859169e-17 -1.0 6.450564160411334e-17
  outer loop
    vertex 29.040099413543004 35.999999999999986 18.88170385626487
    vertex 34.0 35.99999999999999 24.0
    vertex 27.999999999999993 35.999999999999986 19.01863554179698
  endloop
endfacet
facet normal 5.39302169859169e-17 -1.0 6.450564160411334e-17
  outer loop
    vertex 2.000000000000001 35.99999999999999 1.5
    vertex 4.136296694843721 35.999999999999986 13.964723819589898
    vertex 2.000000000000001 35.99999999999999 24.0
  endloop
endfacet
facet normal 5.39302169859169e-17 -1.0 6.450564160411334e-17
  outer loop
    vertex 4.136296694843721 35.999999999999986 13.964723819589898
    vertex 2.000000000000001 35.99999999999999 1.5
    vertex 4.535898384862243 35.999999999999986 13.00000000000001
  endloop
endfacet
facet normal 5.39302169859169e-17 -1.0 6.450564160411334e-17
  outer loop
    vertex 4.535898384862243 35.999999999999986 13.00000000000001
    vertex 2.000000000000001 35.99999999999999 1.5
    vertex 5.171572875253809 35.999999999999986 12.171572875253794
  endloop
endfacet
facet normal 5.39302169859169e-17 -1.0 6.450564160411334e-17
  outer loop
    vertex 5.171572875253809 35.999999999999986 12.171572875253794
    vertex 2.000000000000001 35.99999999999999 1.5
    vertex 5.999999999999994 35.999999999999986 11.535898384862211
  endloop
endfacet
facet normal 5.39302169859169e-17 -1.0 6.450564160411334e-17
  outer loop
    vertex 5.999999999999994 35.999999999999986 11.535898384862211
    vertex 2.000000000000001 35.99999999999999 1.5
    vertex 6.9647238195898975 35.999999999999986 11.13629669484373
  endloop
endfacet
facet normal 5.39302169859169e-17 -1.0 6.450564160411334e-17
  outer loop
    vertex 6.9647238195898975 35.999999999999986 11.13629669484373
    vertex 2.000000000000001 35.99999999999999 1.5
    vertex 7.999999999999991 35.999999999999986 10.999999999999966
  endloop
endfacet
facet normal 5.39302169859169e-17 -1.0 6.450564160411334e-17
  outer loop
    vertex 7.999999999999991 35.999999999999986 10.999999999999966
    vertex 2.000000000000001 35.99999999999999 1.5
    vertex 27.999999999999993 35.999999999999986 10.981364458202892
  endloop
endfacet
facet normal 5.39302169859169e-17 -1.0 6.450564160411334e-17
  outer loop
    vertex 2.000000000000001 35.99999999999999 24.0
    vertex 4.136296694843721 35.999999999999986 13.964723819589898
    vertex 3.9999999999999933 35.999999999999986 14.999999999999966
  endloop
endfacet
facet normal 5.39302169859169e-17 -1.0 6.450564160411334e-17
  outer loop
    vertex 2.000000000000001 35.99999999999999 24.0
    vertex 3.9999999999999933 35.999999999999986 14.999999999999966
    vertex 4.136296694843721 35.999999999999986 16.03527618041005
  endloop
endfacet
facet normal 5.39302169859169e-17 -1.0 6.450564160411334e-17
  outer loop
    vertex 2.000000000000001 35.99999999999999 24.0
    vertex 4.136296694843721 35.999999999999986 16.03527618041005
    vertex 4.5358983848622385 35.999999999999986 16.999999999999968
  endloop
endfacet
facet normal 5.39302169859169e-17 -1.0 6.450564160411334e-17
  outer loop
    vertex 2.000000000000001 35.99999999999999 24.0
    vertex 4.5358983848622385 35.999999999999986 16.999999999999968
    vertex 5.171572875253809 35.999999999999986 17.828427124746142
  endloop
endfacet
facet normal 5.39302169859169e-17 -1.0 6.450564160411334e-17
  outer loop
    vertex 2.000000000000001 35.99999999999999 24.0
    vertex 5.171572875253809 35.999999999999986 17.828427124746142
    vertex 5.99999999999998 35.999999999999986 18.46410161513773
  endloop
endfacet
facet normal 5.39302169859169e-17 -1.0 6.450564160411334e-17
  outer loop
    vertex 2.000000000000001 35.99999999999999 24.0
    vertex 5.99999999999998 35.999999999999986 18.46410161513773
    vertex 6.964723819589894 35.999999999999986 18.86370330515624
  endloop
endfacet
facet normal 5.39302169859169e-17 -1.0 6.450564160411334e-17
  outer loop
    vertex 2.000000000000001 35.99999999999999 24.0
    vertex 6.964723819589894 35.999999999999986 18.86370330515624
    vertex 7.999999999999991 35.999999999999986 18.999999999999964
  endloop
endfacet
facet normal 5.39302169859169e-17 -1.0 6.450564160411334e-17
  outer loop
    vertex 2.000000000000001 35.99999999999999 24.0
    vertex 7.999999999999991 35.999999999999986 18.999999999999964
    vertex 27.999999999999993 35.999999999999986 19.01863554179698
  endloop
endfacet
facet normal 5.39302169859169e-17 -1.0 6.450564160411334e-17
  outer loop
    vertex 2.000000000000001 35.99999999999999 24.0
    vertex 27.999999999999993 35.999999999999986 19.01863554179698
    vertex 34.0 35.99999999999999 24.0
  endloop
endfacet
facet normal 0.0 -1.0 0.0
  outer loop
    vertex 70.48158922343315 0.0 1.016637193795716
    vertex 41.481589223433154 0.0 0.01663719379571595
    vertex 68.48158922343315 0.0 0.01663719379571595
  endloop
endfacet
facet normal 0.0 -1.0 0.0
  outer loop
    vertex 41.481589223433154 0.0 0.01663719379571595
    vertex 70.48158922343315 0.0 1.016637193795716
    vertex 39.481589223433154 0.0 1.016637193795716
  endloop
endfacet
facet normal 0.0 -1.0 0.0
  outer loop
    vertex 39.481589223433154 0.0 1.016637193795716
    vertex 70.48158922343315 0.0 1.016637193795716
    vertex 68.48158922343315 0.0 2.0166371937957157
  endloop
endfacet
facet normal 0.0 -1.0 0.0
  outer loop
    vertex 39.481589223433154 0.0 1.016637193795716
    vertex 68.48158922343315 0.0 2.0166371937957157
    vertex 41.481589223433154 0.0 2.0166371937957157
  endloop
endfacet
facet normal -0.0 1.0 -0.0
  outer loop
    vertex 39.481589223433154 25.999999999999996 1.016637193795716
    vertex 68.48158922343315 25.999999999999996 0.01663719379571595
    vertex 41.481589223433154 25.999999999999996 0.01663719379571595
  endloop
endfacet
facet normal -0.0 1.0 -0.0
  outer loop
    vertex 68.48158922343315 25.999999999999996 0.01663719379571595
    vertex 39.481589223433154 25.999999999999996 1.016637193795716
    vertex 70.48158922343315 25.999999999999996 1.016637193795716
  endloop
endfacet
facet normal -0.0 1.0 -0.0
  outer loop
    vertex 70.48158922343315 25.999999999999996 1.016637193795716
    vertex 39.481589223433154 25.999999999999996 1.016637193795716
    vertex 41.481589223433154 25.999999999999996 2.0166371937957157
  endloop
endfacet
facet normal -0.0 1.0 -0.0
  outer loop
    vertex 70.48158922343315 25.999999999999996 1.016637193795716
    vertex 41.481589223433154 25.999999999999996 2.0166371937957157
    vertex 68.48158922343315 25.999999999999996 2.0166371937957157
  endloop
endfacet
facet normal -0.0 1.0 -0.0
  outer loop
    vertex 68.48158922343315 25.999999999999996 2.0166371937957157
    vertex 41.481589223433154 25.999999999999996 2.0166371937957157
    vertex 41.481589223433154 25.999999999999996 3.0166371937957157
  endloop
endfacet
facet normal -0.0 1.0 -0.0
  outer loop
    vertex 68.48158922343315 25.999999999999996 2.0166371937957157
    vertex 41.481589223433154 25.999999999999996 3.0166371937957157
    vertex 68.48158922343315 25.999999999999996 3.0166371937957157
  endloop
endfacet
facet normal -0.4472135954999576 -0.0 -0.8944271909999162
  outer loop
    vertex 41.481589223433154 25.999999999999996 0.01663719379571595
    vertex 39.481589223433154 0.0 1.016637193795716
    vertex 39.481589223433154 25.999999999999996 1.016637193795716
  endloop
endfacet
facet normal -0.4472135954999576 -0.0 -0.8944271909999162
  outer loop
    vertex 39.481589223433154 0.0 1.016637193795716
    vertex 41.481589223433154 25.999999999999996 0.01663719379571595
    vertex 41.481589223433154 0.0 0.01663719379571595
  endloop
endfacet
facet normal 0.0 0.0 -1.0
  outer loop
    vertex 68.48158922343315 25.999999999999996 0.01663719379571595
    vertex 41.481589223433154 0.0 0.01663719379571595
    vertex 41.481589223433154 25.999999999999996 0.01663719379571595
  endloop
endfacet
facet normal 0.0 0.0 -1.0
  outer loop
    vertex 41.481589223433154 0.0 0.01663719379571595
    vertex 68.48158922343315 25.999999999999996 0.01663719379571595
    vertex 68.48158922343315 0.0 0.01663719379571595
  endloop
endfacet
facet normal 0.44721359549995865 0.0 -0.8944271909999157
  outer loop
    vertex 70.48158922343315 25.999999999999996 1.016637193795716
    vertex 68.48158922343315 0.0 0.01663719379571595
    vertex 68.48158922343315 25.999999999999996 0.01663719379571595
  endloop
endfacet
facet normal 0.44721359549995865 0.0 -0.8944271909999157
  outer loop
    vertex 68.48158922343315 0.0 0.01663719379571595
    vertex 70.48158922343315 25.999999999999996 1.016637193795716
    vertex 70.48158922343315 0.0 1.016637193795716
  endloop
endfacet
facet normal 0.44721359549995865 -6.945832574024653e-19 0.8944271909999155
  outer loop
    vertex 70.48158922343315 0.0 1.016637193795716
    vertex 68.48158922343315 24.0 2.0166371937957157
    vertex 68.48158922343315 0.0 2.0166371937957157
  endloop
endfacet
facet normal 0.44721359549995865 -6.945832574024653e-19 0.8944271909999155
  outer loop
    vertex 68.48158922343315 24.0 2.0166371937957157
    vertex 70.48158922343315 0.0 1.016637193795716
    vertex 68.48158922343315 25.999999999999996 2.0166371937957157
  endloop
endfacet
facet normal 0.44721359549995865 -6.945832574024653e-19 0.8944271909999155
  outer loop
    vertex 68.48158922343315 25.999999999999996 2.0166371937957157
    vertex 70.48158922343315 0.0 1.016637193795716
    vertex 70.48158922343315 25.999999999999996 1.016637193795716
  endloop
endfacet
facet normal -0.44721359549995754 -2.0837497722073854e-18 0.8944271909999162
  outer loop
    vertex 41.481589223433154 0.0 2.0166371937957157
    vertex 39.481589223433154 25.999999999999996 1.016637193795716
    vertex 39.481589223433154 0.0 1.016637193795716
  endloop
endfacet
facet normal -0.44721359549995754 -2.0837497722073854e-18 0.8944271909999162
  outer loop
    vertex 39.481589223433154 25.999999999999996 1.016637193795716
    vertex 41.481589223433154 0.0 2.0166371937957157
    vertex 41.481589223433154 25.999999999999996 2.0166371937957157
  endloop
endfacet
facet normal -0.44721359549995754 -2.0837497722073854e-18 0.8944271909999162
  outer loop
    vertex 41.481589223433154 25.999999999999996 2.0166371937957157
    vertex 41.481589223433154 0.0 2.0166371937957157
    vertex 41.481589223433154 24.0 2.0166371937957157
  endloop
endfacet
facet normal 0.0 0.0 1.0
  outer loop
    vertex 68.48158922343315 24.0 3.0166371937957157
    vertex 41.481589223433154 25.999999999999996 3.0166371937957157
    vertex 41.481589223433154 24.0 3.0166371937957157
  endloop
endfacet
facet normal 0.0 0.0 1.0
  outer loop
    vertex 41.481589223433154 25.999999999999996 3.0166371937957157
    vertex 68.48158922343315 24.0 3.0166371937957157
    vertex 68.48158922343315 25.999999999999996 3.0166371937957157
  endloop
endfacet
facet normal -1.0 -0.0 -0.0
  outer loop
    vertex 41.481589223433154 25.999999999999996 3.0166371937957157
    vertex 41.481589223433154 24.0 2.0166371937957157
    vertex 41.481589223433154 24.0 3.0166371937957157
  endloop
endfacet
facet normal -1.0 -0.0 -0.0
  outer loop
    vertex 41.481589223433154 24.0 2.0166371937957157
    vertex 41.481589223433154 25.999999999999996 3.0166371937957157
    vertex 41.481589223433154 25.999999999999996 2.0166371937957157
  endloop
endfacet
facet normal 0.0 -1.0 0.0
  outer loop
    vertex 68.48158922343315 24.0 3.0166371937957157
    vertex 41.481589223433154 24.0 2.0166371937957157
    vertex 68.48158922343315 24.0 2.0166371937957157
  endloop
endfacet
facet normal 0.0 -1.0 0.0
  outer loop
    vertex 41.481589223433154 24.0 2.0166371937957157
    vertex 68.48158922343315 24.0 3.0166371937957157
    vertex 41.481589223433154 24.0 3.0166371937957157
  endloop
endfacet
facet normal -0.0 1.0 -0.0
  outer loop
    vertex 0.49999999999999994 38.00000000000003 0.0
    vertex 7.000000000000003 37.999999999999986 13.267949192431123
    vertex 35.5 38.00000000000003 0.0
  endloop
endfacet
facet normal -0.0 1.0 -0.0
  outer loop
    vertex 7.000000000000003 37.999999999999986 13.267949192431123
    vertex 0.49999999999999994 38.00000000000003 0.0
    vertex 6.5857864376269095 37.999999999999986 13.585786437626904
  endloop
endfacet
facet normal -0.0 1.0 -0.0
  outer loop
    vertex 6.5857864376269095 37.999999999999986 13.585786437626904
    vertex 0.49999999999999994 38.00000000000003 0.0
    vertex 6.267949192431127 37.999999999999986 14.0
  endloop
endfacet
facet normal -0.0 1.0 -0.0
  outer loop
    vertex 6.267949192431127 37.999999999999986 14.0
    vertex 0.49999999999999994 38.00000000000003 0.0
    vertex 0.49999999999999994 38.00000000000003 24.0
  endloop
endfacet
facet normal -0.0 1.0 -0.0
  outer loop
    vertex 35.5 38.00000000000003 0.0
    vertex 7.000000000000003 37.999999999999986 13.267949192431123
    vertex 7.482361909794962 37.999999999999986 13.068148347421864
  endloop
endfacet
facet normal -0.0 1.0 -0.0
  outer loop
    vertex 35.5 38.00000000000003 0.0
    vertex 7.482361909794962 37.999999999999986 13.068148347421864
    vertex 8.000000000000002 37.999999999999986 13.000000000000002
  endloop
endfacet
facet normal -0.0 1.0 -0.0
  outer loop
    vertex 6.267949192431127 37.999999999999986 14.0
    vertex 0.49999999999999994 38.00000000000003 24.0
    vertex 6.068148347421866 37.999999999999986 14.482361909794959
  endloop
endfacet
facet normal -0.0 1.0 -0.0
  outer loop
    vertex 6.068148347421866 37.999999999999986 14.482361909794959
    vertex 0.49999999999999994 38.00000000000003 24.0
    vertex 6.000000000000003 37.999999999999986 15.0
  endloop
endfacet
facet normal -0.0 1.0 -0.0
  outer loop
    vertex 6.000000000000003 37.999999999999986 15.0
    vertex 0.49999999999999994 38.00000000000003 24.0
    vertex 6.068148347421866 37.999999999999986 15.517638090205041
  endloop
endfacet
facet normal -0.0 1.0 -0.0
  outer loop
    vertex 6.068148347421866 37.999999999999986 15.517638090205041
    vertex 0.49999999999999994 38.00000000000003 24.0
    vertex 6.267949192431125 37.999999999999986 15.999999999999998
  endloop
endfacet
facet normal -0.0 1.0 -0.0
  outer loop
    vertex 6.267949192431125 37.999999999999986 15.999999999999998
    vertex 0.49999999999999994 38.00000000000003 24.0
    vertex 6.585786437626908 37.999999999999986 16.414213562373092
  endloop
endfacet
facet normal -0.0 1.0 -0.0
  outer loop
    vertex 6.585786437626908 37.999999999999986 16.414213562373092
    vertex 0.49999999999999994 38.00000000000003 24.0
    vertex 7.000000000000001 37.999999999999986 16.732050807568875
  endloop
endfacet
facet normal -0.0 1.0 -0.0
  outer loop
    vertex 7.000000000000001 37.999999999999986 16.732050807568875
    vertex 0.49999999999999994 38.00000000000003 24.0
    vertex 7.482361909794959 37.999999999999986 16.931851652578136
  endloop
endfacet
facet normal -0.0 1.0 -0.0
  outer loop
    vertex 7.482361909794959 37.999999999999986 16.931851652578136
    vertex 0.49999999999999994 38.00000000000003 24.0
    vertex 8.000000000000002 37.999999999999986 17.0
  endloop
endfacet
facet normal -0.0 1.0 -0.0
  outer loop
    vertex 8.000000000000002 37.999999999999986 17.0
    vertex 0.49999999999999994 38.00000000000003 24.0
    vertex 28.0 37.999999999999986 17.0
  endloop
endfacet
facet normal -0.0 1.0 -0.0
  outer loop
    vertex 35.5 38.00000000000003 0.0
    vertex 29.73205080756888 37.999999999999986 14.000000000000002
    vertex 35.5 38.00000000000003 24.0
  endloop
endfacet
facet normal -0.0 1.0 -0.0
  outer loop
    vertex 29.73205080756888 37.999999999999986 14.000000000000002
    vertex 35.5 38.00000000000003 0.0
    vertex 29.414213562373092 37.999999999999986 13.585786437626908
  endloop
endfacet
facet normal -0.0 1.0 -0.0
  outer loop
    vertex 29.414213562373092 37.999999999999986 13.585786437626908
    vertex 35.5 38.00000000000003 0.0
    vertex 28.999999999999996 37.999999999999986 13.267949192431125
  endloop
endfacet
facet normal -0.0 1.0 -0.0
  outer loop
    vertex 28.999999999999996 37.999999999999986 13.267949192431125
    vertex 35.5 38.00000000000003 0.0
    vertex 28.51763809020504 37.999999999999986 13.068148347421864
  endloop
endfacet
facet normal -0.0 1.0 -0.0
  outer loop
    vertex 28.51763809020504 37.999999999999986 13.068148347421864
    vertex 35.5 38.00000000000003 0.0
    vertex 28.0 37.999999999999986 13.000000000000002
  endloop
endfacet
facet normal -0.0 1.0 -0.0
  outer loop
    vertex 28.0 37.999999999999986 13.000000000000002
    vertex 35.5 38.00000000000003 0.0
    vertex 8.000000000000002 37.999999999999986 13.000000000000002
  endloop
endfacet
facet normal -0.0 1.0 -0.0
  outer loop
    vertex 35.5 38.00000000000003 24.0
    vertex 29.73205080756888 37.999999999999986 14.000000000000002
    vertex 29.93185165257814 37.999999999999986 14.48236190979496
  endloop
endfacet
facet normal -0.0 1.0 -0.0
  outer loop
    vertex 35.5 38.00000000000003 24.0
    vertex 29.93185165257814 37.999999999999986 14.48236190979496
    vertex 30.0 37.999999999999986 15.0
  endloop
endfacet
facet normal -0.0 1.0 -0.0
  outer loop
    vertex 35.5 38.00000000000003 24.0
    vertex 30.0 37.999999999999986 15.0
    vertex 29.93185165257814 37.999999999999986 15.517638090205043
  endloop
endfacet
facet normal -0.0 1.0 -0.0
  outer loop
    vertex 35.5 38.00000000000003 24.0
    vertex 29.93185165257814 37.999999999999986 15.517638090205043
    vertex 29.73205080756888 37.999999999999986 16.0
  endloop
endfacet
facet normal -0.0 1.0 -0.0
  outer loop
    vertex 35.5 38.00000000000003 24.0
    vertex 29.73205080756888 37.999999999999986 16.0
    vertex 29.414213562373092 37.999999999999986 16.414213562373096
  endloop
endfacet
facet normal -0.0 1.0 -0.0
  outer loop
    vertex 35.5 38.00000000000003 24.0
    vertex 29.414213562373092 37.999999999999986 16.414213562373096
    vertex 28.999999999999996 37.999999999999986 16.732050807568875
  endloop
endfacet
facet normal -0.0 1.0 -0.0
  outer loop
    vertex 35.5 38.00000000000003 24.0
    vertex 28.999999999999996 37.999999999999986 16.732050807568875
    vertex 28.51763809020504 37.999999999999986 16.931851652578136
  endloop
endfacet
facet normal -0.0 1.0 -0.0
  outer loop
    vertex 35.5 38.00000000000003 24.0
    vertex 28.51763809020504 37.999999999999986 16.931851652578136
    vertex 28.0 37.999999999999986 17.0
  endloop
endfacet
facet normal -0.0 1.0 -0.0
  outer loop
    vertex 35.5 38.00000000000003 24.0
    vertex 28.0 37.999999999999986 17.0
    vertex 0.49999999999999994 38.00000000000003 24.0
  endloop
endfacet
facet normal -0.0 1.0 -0.0
  outer loop
    vertex 8.517638090205043 37.999999999999986 13.068148347421864
    vertex 28.0 37.999999999999986 13.000000000000002
    vertex 8.000000000000002 37.999999999999986 13.000000000000002
  endloop
endfacet
facet normal -0.0 1.0 -0.0
  outer loop
    vertex 28.0 37.999999999999986 13.000000000000002
    vertex 8.517638090205043 37.999999999999986 13.068148347421864
    vertex 27.48236190979496 37.999999999999986 13.068148347421864
  endloop
endfacet
facet normal -0.0 1.0 -0.0
  outer loop
    vertex 27.48236190979496 37.999999999999986 13.068148347421864
    vertex 8.517638090205043 37.999999999999986 13.068148347421864
    vertex 9.000000000000004 37.999999999999986 13.267949192431125
  endloop
endfacet
facet normal -0.0 1.0 -0.0
  outer loop
    vertex 27.48236190979496 37.999999999999986 13.068148347421864
    vertex 9.000000000000004 37.999999999999986 13.267949192431125
    vertex 27.0 37.999999999999986 13.267949192431123
  endloop
endfacet
facet normal -0.0 1.0 -0.0
  outer loop
    vertex 27.0 37.999999999999986 13.267949192431123
    vertex 9.000000000000004 37.999999999999986 13.267949192431125
    vertex 26.585786437626908 37.999999999999986 13.585786437626904
  endloop
endfacet
facet normal -0.0 1.0 -0.0
  outer loop
    vertex 26.585786437626908 37.999999999999986 13.585786437626904
    vertex 9.000000000000004 37.999999999999986 13.267949192431125
    vertex 9.414213562373096 37.999999999999986 13.585786437626908
  endloop
endfacet
facet normal -0.0 1.0 -0.0
  outer loop
    vertex 26.585786437626908 37.999999999999986 13.585786437626904
    vertex 9.414213562373096 37.999999999999986 13.585786437626908
    vertex 26.26794919243112 37.999999999999986 14.0
  endloop
endfacet
facet normal -0.0 1.0 -0.0
  outer loop
    vertex 26.26794919243112 37.999999999999986 14.0
    vertex 9.414213562373096 37.999999999999986 13.585786437626908
    vertex 9.732050807568879 37.999999999999986 14.000000000000002
  endloop
endfacet
facet normal -0.0 1.0 -0.0
  outer loop
    vertex 26.26794919243112 37.999999999999986 14.0
    vertex 9.732050807568879 37.999999999999986 14.000000000000002
    vertex 26.068148347421868 37.999999999999986 14.482361909794959
  endloop
endfacet
facet normal -0.0 1.0 -0.0
  outer loop
    vertex 26.068148347421868 37.999999999999986 14.482361909794959
    vertex 9.732050807568879 37.999999999999986 14.000000000000002
    vertex 9.931851652578137 37.999999999999986 14.48236190979496
  endloop
endfacet
facet normal -0.0 1.0 -0.0
  outer loop
    vertex 26.068148347421868 37.999999999999986 14.482361909794959
    vertex 9.931851652578137 37.999999999999986 14.48236190979496
    vertex 25.999999999999996 37.999999999999986 15.0
  endloop
endfacet
facet normal -0.0 1.0 -0.0
  outer loop
    vertex 25.999999999999996 37.999999999999986 15.0
    vertex 9.931851652578137 37.999999999999986 14.48236190979496
    vertex 10.000000000000002 37.999999999999986 15.0
  endloop
endfacet
facet normal -0.0 1.0 -0.0
  outer loop
    vertex 25.999999999999996 37.999999999999986 15.0
    vertex 10.000000000000002 37.999999999999986 15.0
    vertex 9.931851652578137 37.999999999999986 15.517638090205043
  endloop
endfacet
facet normal -0.0 1.0 -0.0
  outer loop
    vertex 25.999999999999996 37.999999999999986 15.0
    vertex 9.931851652578137 37.999999999999986 15.517638090205043
    vertex 26.06814834742186 37.999999999999986 15.517638090205041
  endloop
endfacet
facet normal -0.0 1.0 -0.0
  outer loop
    vertex 26.06814834742186 37.999999999999986 15.517638090205041
    vertex 9.931851652578137 37.999999999999986 15.517638090205043
    vertex 26.26794919243112 37.999999999999986 15.999999999999998
  endloop
endfacet
facet normal -0.0 1.0 -0.0
  outer loop
    vertex 26.26794919243112 37.999999999999986 15.999999999999998
    vertex 9.931851652578137 37.999999999999986 15.517638090205043
    vertex 9.732050807568879 37.999999999999986 16.0
  endloop
endfacet
facet normal -0.0 1.0 -0.0
  outer loop
    vertex 26.26794919243112 37.999999999999986 15.999999999999998
    vertex 9.732050807568879 37.999999999999986 16.0
    vertex 26.585786437626908 37.999999999999986 16.414213562373092
  endloop
endfacet
facet normal -0.0 1.0 -0.0
  outer loop
    vertex 26.585786437626908 37.999999999999986 16.414213562373092
    vertex 9.732050807568879 37.999999999999986 16.0
    vertex 9.414213562373096 37.999999999999986 16.414213562373096
  endloop
endfacet
facet normal -0.0 1.0 -0.0
  outer loop
    vertex 26.585786437626908 37.999999999999986 16.414213562373092
    vertex 9.414213562373096 37.999999999999986 16.414213562373096
    vertex 27.0 37.999999999999986 16.732050807568875
  endloop
endfacet
facet normal -0.0 1.0 -0.0
  outer loop
    vertex 27.0 37.999999999999986 16.732050807568875
    vertex 9.414213562373096 37.999999999999986 16.414213562373096
    vertex 9.000000000000002 37.999999999999986 16.732050807568875
  endloop
endfacet
facet normal -0.0 1.0 -0.0
  outer loop
    vertex 27.0 37.999999999999986 16.732050807568875
    vertex 9.000000000000002 37.999999999999986 16.732050807568875
    vertex 8.517638090205043 37.999999999999986 16.931851652578136
  endloop
endfacet
facet normal -0.0 1.0 -0.0
  outer loop
    vertex 27.0 37.999999999999986 16.732050807568875
    vertex 8.517638090205043 37.999999999999986 16.931851652578136
    vertex 27.482361909794953 37.999999999999986 16.931851652578136
  endloop
endfacet
facet normal -0.0 1.0 -0.0
  outer loop
    vertex 27.482361909794953 37.999999999999986 16.931851652578136
    vertex 8.517638090205043 37.999999999999986 16.931851652578136
    vertex 8.000000000000002 37.999999999999986 17.0
  endloop
endfacet
facet normal -0.0 1.0 -0.0
  outer loop
    vertex 27.482361909794953 37.999999999999986 16.931851652578136
    vertex 8.000000000000002 37.999999999999986 17.0
    vertex 28.0 37.999999999999986 17.0
  endloop
endfacet
endsolid support-rideau-v2.1
